HIERARCHY
ROOT Hips
{
	OFFSET 0.00000 0.00000 0.00000
	CHANNELS 6 Xposition Yposition Zposition Zrotation Yrotation Xrotation 
	JOINT LHipJoint
	{
		OFFSET 0 0 0
		CHANNELS 3 Zrotation Yrotation Xrotation
		JOINT LeftHip
		{
			OFFSET 1.59715 -1.91394 0.36268
			CHANNELS 3 Zrotation Yrotation Xrotation
			JOINT LeftKnee
			{
				OFFSET 2.53886 -6.97546 0.00000
				CHANNELS 3 Zrotation Yrotation Xrotation
				JOINT LeftAnkle
				{
					OFFSET 2.77084 -7.61284 0.00000
					CHANNELS 3 Zrotation Yrotation Xrotation
					JOINT LeftToe
					{
						OFFSET 0.19855 -0.54550 2.06057
						CHANNELS 3 Zrotation Yrotation Xrotation
						End Site
						{
							OFFSET 0.00000 -0.00000 1.07182
						}
					}
				}
			}
		}
	}
	JOINT RHipJoint
	{
		OFFSET 0 0 0
		CHANNELS 3 Zrotation Yrotation Xrotation
		JOINT RightHip
		{
			OFFSET -1.71086 -1.91394 0.36268
			CHANNELS 3 Zrotation Yrotation Xrotation
			JOINT RightKnee
			{
				OFFSET -2.59448 -7.12828 0.00000
				CHANNELS 3 Zrotation Yrotation Xrotation
				JOINT RightAnkle
				{
					OFFSET -2.80237 -7.69945 0.00000
					CHANNELS 3 Zrotation Yrotation Xrotation
					JOINT RightToe
					{
						OFFSET -0.18280 -0.50224 2.06614
						CHANNELS 3 Zrotation Yrotation Xrotation
						End Site
						{
							OFFSET -0.00000 -0.00000 1.07055
						}
					}
				}
			}
		}
	}
	JOINT lowerback
	{
		OFFSET 0 0 0
		CHANNELS 3 Zrotation Yrotation Xrotation
		JOINT Chest
		{
			OFFSET 0.04838 1.91536 -0.09733
			CHANNELS 3 Zrotation Yrotation Xrotation
			JOINT Chest2
			{
				OFFSET 0.04097 1.92183 -0.02751
				CHANNELS 3 Zrotation Yrotation Xrotation
				JOINT lowerneck
				{
					OFFSET 0 0 0
					CHANNELS 3 Zrotation Yrotation Xrotation
					JOINT Neck
					{
						OFFSET 0.18766 3.12816 0.13727
						CHANNELS 3 Zrotation Yrotation Xrotation
						JOINT Head
						{
							OFFSET -0.11178 3.16074 0.02732
							CHANNELS 3 Zrotation Yrotation Xrotation
							End Site
							{
								OFFSET 0.47685 1.04189 0.57898
							}
						}
					}
				}
				JOINT LeftCollar
				{
					OFFSET 0 0 0
					CHANNELS 3 Zrotation Yrotation Xrotation
					JOINT LeftShoulder
					{
						OFFSET 3.49325 0.99827 -0.10681
CHANNELS 3 Zrotation Xrotation Yrotation
						JOINT LeftElbow
						{
OFFSET 0 -5.128420 0.000000
CHANNELS 3 Zrotation Xrotation Yrotation
							JOINT LeftWrist
							{
OFFSET 0 -3.473960 0.000000
CHANNELS 3 Zrotation Xrotation Yrotation
								JOINT lhand
								{
									OFFSET 0 0 0
CHANNELS 3 Zrotation Xrotation Yrotation
									JOINT LFingers
									{
OFFSET 0 -0.728610 0.000000
CHANNELS 3 Zrotation Xrotation Yrotation
										End Site
										{
OFFSET 0 -0.587420 0.000000
										}
									}
								}
								JOINT LThumb
								{
OFFSET 0 0.000000 0.000000
CHANNELS 3 Zrotation Xrotation Yrotation
									End Site
									{
OFFSET 0 -0.596390 0.596390
									}
								}
							}
						}
					}
				}
				JOINT RightCollar
				{
					OFFSET 0 0 0
					CHANNELS 3 Zrotation Yrotation Xrotation
					JOINT RightShoulder
					{
						OFFSET -3.23261 1.50670 -0.18692
CHANNELS 3 Zrotation Xrotation Yrotation
						JOINT RightElbow
						{
OFFSET 0 -5.484770 -0.000000
CHANNELS 3 Zrotation Xrotation Yrotation
							JOINT RightWrist
							{
OFFSET 0 -3.478560 0.000000
CHANNELS 3 Zrotation Xrotation Yrotation
								JOINT rhand
								{
									OFFSET 0 0 0
CHANNELS 3 Zrotation Xrotation Yrotation
									JOINT RFingers
									{
OFFSET 0 -0.709970 0.000000
CHANNELS 3 Zrotation Xrotation Yrotation
										End Site
										{
OFFSET 0 -0.572400 0.000000
										}
									}
								}
								JOINT RThumb
								{
OFFSET 0 0.000000 0.000000
CHANNELS 3 Zrotation Xrotation Yrotation
									End Site
									{
OFFSET 0 -0.581140 0.581140
									}
								}
							}
						}
					}
				}
			}
		}
	}
}
MOTION
Frames: 8
Frame Time: 0.008333333333333333
-0.320200 18.237900 -3.146000 -2.770000 -0.852400 6.306900 0.000000 0.000000 0.000000 -18.235300 -14.323600 -7.632100 2.097900 9.067200 26.005600 0.935100 4.404400 -20.368700 0.107200 2.111000 5.812500 0.000000 0.000000 0.000000 27.811400 13.747400 -11.190100 -2.763500 -10.302000 29.960500 -0.686700 -9.959900 -22.274200 -1.978800 -8.821800 25.239600 1.551900 -2.308900 -0.345100 2.857000 -2.970600 -3.921600 2.163100 -1.483200 -3.771500 -9.520800 -11.762000 -8.940500 1.542100 -14.904700 16.116700 0.576300 -7.621200 7.247300 -0.000000 0.000000 0.000000 -1.118200 4.643300 -4.355300 16.902000 -26.728400 4.043200 8.969400 19.400600 -27.998300 0.000000 0.000000 0.000000 -7.125000 0.000000 0.000000 -23.437900 56.691300 6.981600 -0.000000 0.000000 0.000000 -3.930400 0.198300 7.934200 -13.039500 -21.345000 -2.467600 -22.627500 -4.424800 -15.618900 0.000000 0.000000 0.000000 7.125000 0.000000 -0.000000 3.376100 13.151200 2.523900
-0.295840 18.241834 -3.117588 -2.798178 -0.912737 6.187724 0.000000 0.000000 0.000000 -18.400143 -14.315224 -7.233809 2.072504 9.015446 25.843740 0.932642 4.609338 -20.468652 0.108205 2.121091 5.840464 0.000000 0.000000 0.000000 27.797289 13.610150 -10.926145 -2.751378 -10.281218 29.892217 -0.694459 -9.930829 -22.318061 -1.946646 -8.754015 25.028858 1.503969 -2.333025 -0.469659 2.888961 -3.008505 -3.864688 2.215621 -1.500565 -3.636848 -9.634831 -11.690453 -9.086329 1.737772 -14.808533 16.112814 0.654410 -7.563162 7.290065 0.000000 0.000000 0.000000 -0.820093 4.584246 -5.168436 17.152444 -27.058371 4.156485 8.935453 18.714872 -27.516776 0.000000 0.000000 0.000000 -7.125000 0.000000 0.000000 -23.141093 56.244731 6.631541 0.000000 0.000000 0.000000 -4.266451 0.065177 7.606167 -12.758916 -20.932936 -2.366426 -22.260482 -3.543413 -14.875817 0.000000 0.000000 0.000000 7.125000 0.000000 0.000000 3.579001 13.987716 2.612884
-0.268796 18.242256 -3.101876 -2.712590 -1.160290 6.398975 0.000000 0.000000 0.000000 -18.573775 -14.259904 -7.365778 2.068407 9.007213 25.817873 0.930418 4.610801 -20.449324 0.113466 2.171390 5.979626 0.000000 0.000000 0.000000 27.556234 13.871809 -11.095779 -2.775666 -10.322747 30.028226 -0.704484 -9.838014 -22.324867 -1.932077 -8.723053 24.932869 1.350404 -2.301079 -0.754624 2.949643 -2.975381 -3.882108 2.349653 -1.478925 -3.483724 -9.607872 -11.639770 -9.553809 1.777211 -14.708628 16.332813 0.638435 -7.503870 7.437742 0.000000 0.000000 0.000000 -0.862686 4.345969 -4.835653 17.025146 -26.890843 4.098705 8.819721 19.053961 -26.853672 0.000000 0.000000 0.000000 -7.125000 0.000000 0.000000 -22.815570 55.614520 6.175396 0.000000 0.000000 0.000000 -4.607860 -0.188396 7.245284 -12.544904 -20.616777 -2.290499 -22.378590 -3.587011 -15.324265 0.000000 0.000000 0.000000 7.125000 0.000000 0.000000 3.525339 13.495754 2.610309
-0.234493 18.239843 -3.083625 -2.875316 -1.148289 6.027942 0.000000 0.000000 0.000000 -18.605343 -13.897084 -6.997355 2.071690 9.013794 25.838478 0.939921 4.481076 -20.459834 0.097209 2.009966 5.533233 0.000000 0.000000 0.000000 27.694506 13.463872 -10.710450 -2.763717 -10.302290 29.961287 -0.707164 -9.694583 -22.219337 -1.940022 -8.740002 24.985323 1.755849 -2.300044 -0.572440 2.857665 -2.968488 -3.736888 2.032480 -1.489150 -3.461806 -9.439709 -11.706584 -9.421688 1.850561 -14.851797 16.203979 0.633715 -7.558220 7.372468 0.000000 0.000000 0.000000 -0.511712 4.371515 -5.036377 16.730322 -26.500853 3.966303 8.740865 19.484160 -28.057864 0.000000 0.000000 0.000000 -7.125000 0.000000 0.000000 -23.706942 56.698595 7.072527 0.000000 0.000000 0.000000 -4.533354 -0.292808 6.543226 -12.463331 -20.495834 -2.261938 -22.471644 -3.286859 -15.487330 0.000000 0.000000 0.000000 7.125000 0.000000 0.000000 3.472615 13.310708 2.584662
-0.210093 18.242690 -3.071545 -2.683879 -1.415170 6.117737 0.000000 0.000000 0.000000 -18.908804 -13.625579 -6.978784 2.026797 8.921694 25.550510 0.932923 4.582565 -20.454978 0.096382 2.001216 5.509137 0.000000 0.000000 0.000000 27.358027 13.699885 -10.756140 -2.779693 -10.329516 30.050500 -0.716068 -9.609017 -22.224605 -1.916887 -8.690559 24.832182 1.583396 -2.333251 -0.680648 2.863231 -3.018006 -3.777556 2.131639 -1.508900 -3.432458 -9.595146 -11.590719 -9.472023 1.970227 -14.686097 16.252984 0.707127 -7.477439 7.409735 0.000000 0.000000 0.000000 -0.625077 4.799924 -4.552454 16.585250 -26.307727 3.901716 8.764543 19.624164 -26.904823 0.000000 0.000000 0.000000 -7.125000 0.000000 0.000000 -22.903627 55.650403 6.221776 0.000000 0.000000 0.000000 -4.782246 -0.314815 7.021706 -12.451435 -20.478212 -2.257732 -22.338527 -3.625937 -15.265186 0.000000 0.000000 0.000000 7.125000 0.000000 0.000000 3.548810 13.563649 2.622721
-0.187334 18.242476 -3.087521 -2.727957 -1.427558 6.306122 0.000000 0.000000 0.000000 -18.848466 -13.621110 -7.315788 2.036905 8.942549 25.615738 0.937220 4.455047 -20.419022 0.094632 1.983829 5.460914 0.000000 0.000000 0.000000 27.246014 13.618691 -11.118685 -2.789627 -10.346379 30.105951 -0.729116 -9.379366 -22.138853 -1.968054 -8.799185 25.169168 1.682417 -2.362525 -0.459093 2.904255 -3.043983 -3.880625 2.134091 -1.523735 -3.667256 -9.581045 -11.518908 -9.318791 2.040226 -14.610514 16.042862 0.752183 -7.436439 7.314150 0.000000 0.000000 0.000000 -0.671193 5.044406 -4.143185 16.237858 -25.842055 3.749040 8.611401 19.983879 -27.332265 0.000000 0.000000 0.000000 -7.125000 0.000000 0.000000 -23.337448 56.011293 6.557504 0.000000 0.000000 0.000000 -4.862059 -0.205672 7.535009 -12.626830 -20.737998 -2.319473 -22.587072 -4.433178 -15.448759 0.000000 0.000000 0.000000 7.125000 0.000000 0.000000 3.392581 13.337702 2.523028
-0.175474 18.244573 -3.091595 -2.752528 -1.690753 6.343255 0.000000 0.000000 0.000000 -18.902790 -13.585577 -7.254527 2.015074 8.897263 25.474633 0.925327 4.593426 -20.390765 0.106284 2.102038 5.787690 0.000000 0.000000 0.000000 27.211236 13.864732 -11.020814 -2.774779 -10.321274 30.023433 -0.729432 -9.357616 -22.122763 -1.966255 -8.795480 25.157612 1.645448 -2.312094 -0.288115 2.950774 -2.973317 -3.778723 2.205377 -1.486464 -3.655380 -9.532629 -11.473649 -9.544614 2.000712 -14.522944 16.019080 0.730710 -7.390737 7.333104 0.000000 0.000000 0.000000 -0.728445 5.071587 -3.779372 15.871531 -25.346113 3.590799 8.437046 20.422907 -27.653935 0.000000 0.000000 0.000000 -7.125000 0.000000 0.000000 -23.728377 56.269531 6.828189 0.000000 0.000000 0.000000 -4.755963 -0.275276 7.423090 -12.772030 -20.952302 -2.371154 -22.301202 -4.307774 -15.809056 0.000000 0.000000 0.000000 7.125000 0.000000 0.000000 3.607009 12.988954 2.709483
-0.163246 18.249032 -3.114450 -2.882209 -1.710194 6.465608 0.000000 0.000000 0.000000 -18.737404 -13.676692 -7.488337 2.027762 8.923693 25.556887 0.930723 4.509492 -20.390431 0.114313 2.179641 6.002435 0.000000 0.000000 0.000000 27.259713 13.889724 -11.210399 -2.759629 -10.295337 29.938559 -0.710211 -9.395360 -21.978850 -1.910452 -8.676926 24.789829 1.790792 -2.365219 -0.089674 3.023740 -3.034535 -3.703501 2.208608 -1.520257 -3.692055 -9.567068 -11.339782 -9.409133 2.177964 -14.373040 15.867977 0.821318 -7.307825 7.267719 0.000000 0.000000 0.000000 -0.749509 5.165814 -3.159865 15.445806 -24.763487 3.410538 8.589323 20.989432 -26.743987 0.000000 0.000000 0.000000 -7.125000 0.000000 0.000000 -22.972774 55.468518 6.139642 0.000000 0.000000 0.000000 -4.643040 -0.403011 7.438588 -12.768813 -20.947495 -2.370012 -22.231472 -4.058353 -15.842528 0.000000 0.000000 0.000000 7.125000 0.000000 0.000000 3.655830 12.962044 2.748394
